<svg width="23" height="25" viewBox="0 0 23 25" fill="none" xmlns="http://www.w3.org/2000/svg">
<path d="M22.7548 19.4296C22.6477 19.1373 22.4677 18.8478 22.2125 18.605C21.9401 18.347 21.5783 18.0709 21.1574 17.7733C20.529 17.33 19.7787 16.8549 19.1073 16.4617C18.7717 16.265 18.4561 16.0894 18.1823 15.9479C17.9042 15.8056 17.6847 15.6999 17.4691 15.6285C17.2891 15.5694 17.1039 15.5432 16.924 15.5432C16.3812 15.547 15.8985 15.7636 15.4942 16.075C15.0919 16.3907 14.7586 16.8154 14.5658 17.3267C14.5416 17.3919 14.5182 17.4423 14.4968 17.4842C13.914 17.1086 12.4795 16.0436 10.369 13.5393C8.91929 11.8187 8.08325 10.5251 7.61426 9.67764C7.40098 9.29106 7.26621 9.00205 7.18101 8.80259C7.22627 8.78833 7.28008 8.77402 7.34912 8.76118C7.93516 8.64741 8.44795 8.35361 8.84219 7.95937C9.03882 7.76084 9.20635 7.53467 9.32969 7.28003C9.452 7.02578 9.53154 6.73965 9.53154 6.43398C9.53154 6.35215 9.52583 6.27021 9.51396 6.1874C9.4916 6.03599 9.45395 5.88696 9.40449 5.7103C9.23115 5.10137 8.89551 4.19395 8.51987 3.29839C8.33232 2.85132 8.1352 2.41094 7.94331 2.01816C7.75049 1.62441 7.56768 1.28257 7.38535 1.00933C7.12353 0.617041 6.75737 0.349463 6.38984 0.199951C6.02085 0.048584 5.65098 0.000439453 5.31577 0C5.00342 0 4.71826 0.0418945 4.47397 0.100928C4.35161 0.13042 4.2397 0.164697 4.13691 0.202832C4.03311 0.241846 3.94072 0.281836 3.84082 0.341309L3.84224 0.340381C3.84224 0.340381 3.84082 0.341309 3.84033 0.341797L3.81509 0.299902L3.82178 0.352246C3.78462 0.373682 3.70371 0.419385 3.60469 0.478906C3.16621 0.742676 2.30825 1.30542 1.54033 2.23521C0.77334 3.16123 0.0958498 4.48765 0.0982424 6.18398C0.0982424 6.5458 0.128711 6.92383 0.193945 7.31665C0.907178 11.6034 2.92441 15.1452 5.22441 17.8746C7.52441 20.6036 10.6729 23.1936 14.7773 24.6229C15.5329 24.8857 16.2556 25 16.9284 25C18.5461 24.9995 19.8397 24.3472 20.7362 23.6845C21.1866 23.3521 21.5427 23.0146 21.8031 22.7413C21.9331 22.6047 22.0393 22.4842 22.1197 22.3899C22.1987 22.2976 22.2592 22.2229 22.2702 22.2105C22.3649 22.0986 22.4306 21.9915 22.5001 21.8634C22.6982 21.4849 22.8972 20.9397 22.902 20.2899C22.9019 20.0162 22.8624 19.7225 22.7548 19.4296ZM1.56069 6.18403C1.56118 5.43657 1.72544 4.80478 1.97827 4.25581C2.35581 3.43457 2.94473 2.80132 3.47466 2.35952C3.73892 2.13862 3.98647 1.96675 4.1812 1.84199C4.27832 1.77959 4.3626 1.72964 4.42974 1.69014C4.49731 1.65059 4.54302 1.62534 4.59019 1.59727C4.60015 1.59014 4.71108 1.54541 4.84487 1.51582C4.98154 1.48491 5.15005 1.46206 5.31577 1.46255C5.50669 1.46157 5.69043 1.49253 5.83179 1.552C5.97515 1.61294 6.07749 1.68818 6.1708 1.82485C6.30459 2.02246 6.50215 2.38999 6.70498 2.81753C7.01162 3.46216 7.34248 4.25532 7.60195 4.94663C7.73145 5.2918 7.84385 5.61226 7.92573 5.87222C8.00806 6.12837 8.06001 6.34019 8.06665 6.39639L8.06904 6.43398C8.06953 6.48252 8.05576 6.55493 8.01289 6.64394C7.95005 6.77676 7.81909 6.9377 7.64775 7.06523C7.47681 7.1938 7.27017 7.28809 7.07593 7.32427C6.81597 7.37378 6.59316 7.44663 6.40034 7.54468C6.11182 7.68892 5.89277 7.90322 5.77139 8.12412C5.64761 8.34502 5.62241 8.5498 5.62285 8.6707L5.62666 8.75352L5.64951 8.87539C5.68237 8.99585 6.24272 10.9126 9.25073 14.4819C12.2587 18.0513 14.0527 18.9282 14.166 18.9811L14.2898 19.0263C14.3393 19.0392 14.4236 19.0563 14.5378 19.0563C14.7377 19.0602 15.0401 18.9896 15.302 18.7802C15.5662 18.5727 15.7781 18.2612 15.9357 17.8395C16.019 17.6123 16.1933 17.3833 16.3932 17.2291C16.5922 17.071 16.8079 17.0025 16.9241 17.0063L17.0169 17.0191C17.0517 17.0301 17.1579 17.0729 17.2893 17.1367C17.7606 17.3615 18.5848 17.8352 19.3617 18.3317C19.7517 18.5803 20.1326 18.8359 20.4572 19.0702C20.7814 19.303 21.0528 19.5196 21.2037 19.6639C21.2927 19.7496 21.3441 19.8343 21.3822 19.9357C21.4199 20.0367 21.4394 20.1562 21.4394 20.2899C21.4403 20.4994 21.3875 20.7389 21.3166 20.9322C21.2818 21.0284 21.2427 21.1131 21.2104 21.1741L21.1694 21.2445L21.1608 21.2569C21.1175 21.3079 21.0761 21.3598 21.0071 21.4407C20.7733 21.7159 20.2806 22.251 19.5807 22.7071C18.8798 23.1646 17.9915 23.537 16.9283 23.5375C16.4193 23.537 15.8662 23.4527 15.2582 23.2413C11.4575 21.9187 8.51562 19.5101 6.34321 16.932C4.17075 14.3535 2.29634 11.0465 1.63647 7.07681C1.58408 6.76104 1.56069 6.46445 1.56069 6.18403Z" fill="#4B4B4B"/>
</svg>
